<?xml version="1.0" encoding="UTF-8"?>
<svg xmlns="http://www.w3.org/2000/svg" id="Layer_1" data-name="Layer 1" viewBox="0 0 800 400">
  <defs>
    <style>
      .cls-1 {
        fill: #f9aa0c;
      }

      .cls-1, .cls-2, .cls-3, .cls-4, .cls-5, .cls-6, .cls-7, .cls-8, .cls-9, .cls-10, .cls-11, .cls-12, .cls-13, .cls-14 {
        stroke-width: 0px;
      }

      .cls-2 {
        fill: #55be36;
      }

      .cls-3 {
        fill: #2e3191;
      }

      .cls-4 {
        fill: #0f84cf;
      }

      .cls-5 {
        fill: #404041;
      }

      .cls-6 {
        fill: #1f5ab0;
      }

      .cls-7 {
        fill: #aad81b;
      }

      .cls-8 {
        fill: #00a551;
      }

      .cls-9 {
        fill: #fff100;
      }

      .cls-10 {
        fill: #ec1c24;
      }

      .cls-11 {
        fill: #f26318;
      }

      .cls-12 {
        fill: #00adee;
      }

      .cls-13 {
        fill: #00a885;
      }

      .cls-14 {
        fill: #00aaba;
      }
    </style>
  </defs>
  <polygon class="cls-3" points="260.06 242.38 280.56 213.82 178.93 72.29 77.3 213.82 97.81 242.38 260.06 242.38"></polygon>
  <polygon class="cls-6" points="296.9 242.38 317.41 213.82 215.78 72.29 114.15 213.82 134.65 242.38 296.9 242.38"></polygon>
  <polygon class="cls-4" points="333.75 242.38 354.25 213.82 252.62 72.29 150.99 213.82 171.49 242.38 333.75 242.38"></polygon>
  <polygon class="cls-12" points="370.59 242.38 391.1 213.82 289.47 72.29 187.84 213.82 208.34 242.38 370.59 242.38"></polygon>
  <polygon class="cls-14" points="407.44 242.38 427.94 213.82 326.31 72.29 224.68 213.82 245.18 242.38 407.44 242.38"></polygon>
  <polygon class="cls-13" points="444.28 242.38 464.78 213.82 363.16 72.29 261.53 213.82 282.03 242.38 444.28 242.38"></polygon>
  <polygon class="cls-8" points="481.13 242.38 501.63 213.82 400 72.29 298.37 213.82 318.87 242.38 481.13 242.38"></polygon>
  <polygon class="cls-2" points="517.97 242.38 538.47 213.82 436.84 72.29 335.22 213.82 355.72 242.38 517.97 242.38"></polygon>
  <polygon class="cls-7" points="554.82 242.38 575.32 213.82 473.69 72.29 372.06 213.82 392.56 242.38 554.82 242.38"></polygon>
  <polygon class="cls-9" points="591.66 242.38 612.16 213.82 510.53 72.29 408.9 213.82 429.41 242.38 591.66 242.38"></polygon>
  <polygon class="cls-1" points="628.51 242.38 649.01 213.82 547.38 72.29 445.75 213.82 466.25 242.38 628.51 242.38"></polygon>
  <polygon class="cls-11" points="665.35 242.38 685.85 213.82 584.22 72.29 482.59 213.82 503.1 242.38 665.35 242.38"></polygon>
  <polygon class="cls-10" points="702.19 242.38 722.7 213.82 621.07 72.29 519.44 213.82 539.94 242.38 702.19 242.38"></polygon>
  <g>
    <path class="cls-5" d="M134.36,275.38v50.18h-15.77v-50.18h15.77ZM121.96,292.59h40.15v13.98h-40.15v-13.98ZM168.06,275.38v50.18h-15.77v-50.18h15.77Z"></path>
    <path class="cls-5" d="M232.22,275.38l-18.07,30.47v19.71h-16.13v-19.57l-18.14-30.61h18.28l7.89,16.2,7.89-16.2h18.28Z"></path>
    <path class="cls-5" d="M259.81,275.38v50.18h-15.77v-50.18h15.77ZM254.22,275.38h9.53c4.92,0,8.93.69,12.01,2.08,3.08,1.39,5.35,3.36,6.81,5.91,1.46,2.56,2.19,5.63,2.19,9.21s-.73,6.6-2.19,9.18c-1.46,2.58-3.73,4.57-6.81,5.95-3.08,1.39-7.09,2.08-12.01,2.08h-9.53v-12.55h9.53c1.96,0,3.44-.41,4.44-1.22,1-.81,1.51-1.96,1.51-3.44s-.5-2.63-1.51-3.44c-1-.81-2.49-1.22-4.44-1.22h-9.53v-12.55Z"></path>
    <path class="cls-5" d="M314.15,275.38v50.18h-15.05v-50.18h15.05ZM310,275.38h25.31v12.55h-25.31v-12.55ZM310,293.66h23.87v12.19h-23.87v-12.19ZM310,313.02h25.31v12.55h-25.31v-12.55Z"></path>
    <path class="cls-5" d="M367.56,275.38v50.18h-15.77v-50.18h15.77ZM361.97,275.38h10.97c4.92,0,8.93.74,12.01,2.22,3.08,1.48,5.35,3.51,6.81,6.09,1.46,2.58,2.19,5.54,2.19,8.89s-.73,6.25-2.19,8.85c-1.46,2.6-3.73,4.65-6.81,6.13-3.08,1.48-7.09,2.22-12.01,2.22h-10.97v-11.83h9.53c1.34,0,2.44-.18,3.3-.54.86-.36,1.52-.9,1.97-1.61.45-.72.68-1.55.68-2.51s-.23-1.85-.68-2.54c-.46-.69-1.11-1.22-1.97-1.58-.86-.36-1.96-.54-3.3-.54h-9.53v-13.26ZM382.62,304.06l14.34,21.51h-18.28l-12.19-21.51h16.13Z"></path>
    <path class="cls-5" d="M425.27,275.38v50.18h-16.13v-50.18h16.13Z"></path>
    <path class="cls-5" d="M456.45,325.56h-16.85l9.32-52.69,22.22,27.1,22.22-27.1,9.32,52.69h-16.85l-2.58-20.5-12.12,15.84-12.12-15.84-2.58,20.5Z"></path>
    <path class="cls-5" d="M533.8,312.01l1.22,3.58-5.45,9.96h-17.92l28.32-53.77,28.32,53.77h-17.92l-5.3-9.46,1.08-4.09-6.17-13.84-6.17,13.84ZM526.85,307.78h26.52v11.33h-26.52v-11.33Z"></path>
    <path class="cls-5" d="M603.77,296.89h26.67c.38,4.3.06,8.32-.97,12.04-1.03,3.73-2.69,7-4.98,9.82-2.29,2.82-5.19,5.02-8.67,6.6-3.49,1.58-7.5,2.37-12.04,2.37-4.21,0-8.05-.65-11.54-1.94-3.49-1.29-6.51-3.13-9.07-5.52-2.56-2.39-4.54-5.26-5.95-8.6-1.41-3.34-2.11-7.07-2.11-11.18s.74-7.8,2.22-11.08c1.48-3.27,3.55-6.06,6.2-8.35,2.65-2.29,5.76-4.05,9.32-5.27,3.56-1.22,7.44-1.83,11.65-1.83,3.82,0,7.2.57,10.14,1.72,2.94,1.15,5.52,2.67,7.74,4.55,2.22,1.89,4.17,4,5.84,6.34l-14.7,6.6c-.86-1.58-1.98-2.96-3.37-4.16-1.39-1.19-3.27-1.79-5.66-1.79s-4.49.49-6.45,1.47c-1.96.98-3.53,2.45-4.7,4.41-1.17,1.96-1.76,4.42-1.76,7.38s.54,5.42,1.61,7.53c1.08,2.1,2.58,3.7,4.52,4.8,1.94,1.1,4.19,1.65,6.77,1.65,1.43,0,2.72-.14,3.87-.43,1.15-.29,2.14-.69,2.97-1.22.84-.53,1.57-1.17,2.19-1.93.62-.76,1.15-1.6,1.58-2.51h-11.33v-11.47Z"></path>
    <path class="cls-5" d="M660.26,275.38v50.18h-15.05v-50.18h15.05ZM656.1,275.38h25.31v12.55h-25.31v-12.55ZM656.1,293.66h23.87v12.19h-23.87v-12.19ZM656.1,313.02h25.31v12.55h-25.31v-12.55Z"></path>
  </g>
</svg>
